<svg xmlns="http://www.w3.org/2000/svg" width="800" height="470" viewBox="0 0 800 470"><path d="M557 716Q651 716 725.5 738.5Q800 761 851.5 803.0Q903 845 930.0 904.0Q957 963 957 1037Q957 1188 858.5 1261.0Q760 1334 571 1334H312V716ZM1185 0H1097Q1080 0 1068.5 5.5Q1057 11 1047 26L593 600Q585 611 576.5 619.0Q568 627 557.5 631.5Q547 636 532.5 638.0Q518 640 497 640H312V0H209V1415H571Q815 1415 936.5 1320.5Q1058 1226 1058 1043Q1058 962 1030.0 895.0Q1002 828 949.5 777.5Q897 727 822.5 695.0Q748 663 655 652Q679 637 698 612Z" transform="translate(0.000,190.000) scale(0.085000,-0.085000)" fill="currentColor"/>
<path d="M1059 85 1057 0H209V1415H1057V1330H312V758H932V675H312V85Z" transform="translate(115.940,190.000) scale(0.085000,-0.085000)" fill="currentColor"/>
<path d="M896 1243Q887 1226 870 1226Q857 1226 836.5 1244.5Q816 1263 781.0 1285.5Q746 1308 693.5 1327.0Q641 1346 564 1346Q487 1346 428.5 1324.0Q370 1302 330.5 1264.0Q291 1226 270.5 1176.0Q250 1126 250 1071Q250 999 280.5 952.0Q311 905 361.0 872.0Q411 839 474.5 816.5Q538 794 605.0 772.0Q672 750 735.5 723.5Q799 697 849.0 657.0Q899 617 929.5 558.5Q960 500 960 413Q960 324 929.5 245.5Q899 167 841.0 109.0Q783 51 699.0 17.5Q615 -16 507 -16Q367 -16 266.0 33.5Q165 83 89 169L117 213Q129 228 145 228Q154 228 168.0 216.0Q182 204 202.0 186.5Q222 169 250.0 148.5Q278 128 315.0 110.5Q352 93 400.0 81.0Q448 69 509 69Q593 69 659.0 94.5Q725 120 770.5 164.0Q816 208 840.0 268.5Q864 329 864 398Q864 473 833.5 521.5Q803 570 753.0 602.5Q703 635 639.5 657.0Q576 679 509.0 700.0Q442 721 378.5 747.0Q315 773 265.0 813.5Q215 854 184.5 914.5Q154 975 154 1066Q154 1137 181.0 1203.0Q208 1269 260.0 1319.5Q312 1370 388.5 1400.5Q465 1431 563 1431Q673 1431 760.5 1396.0Q848 1361 920 1289Z" transform="translate(227.290,190.000) scale(0.085000,-0.085000)" fill="currentColor"/>
<path d="M1059 85 1057 0H209V1415H1057V1330H312V758H932V675H312V85Z" transform="translate(330.990,190.000) scale(0.085000,-0.085000)" fill="currentColor"/>
<path d="M557 716Q651 716 725.5 738.5Q800 761 851.5 803.0Q903 845 930.0 904.0Q957 963 957 1037Q957 1188 858.5 1261.0Q760 1334 571 1334H312V716ZM1185 0H1097Q1080 0 1068.5 5.5Q1057 11 1047 26L593 600Q585 611 576.5 619.0Q568 627 557.5 631.5Q547 636 532.5 638.0Q518 640 497 640H312V0H209V1415H571Q815 1415 936.5 1320.5Q1058 1226 1058 1043Q1058 962 1030.0 895.0Q1002 828 949.5 777.5Q897 727 822.5 695.0Q748 663 655 652Q679 637 698 612Z" transform="translate(442.340,190.000) scale(0.085000,-0.085000)" fill="currentColor"/>
<path d="M1285 1415 701 0H610L26 1415H107Q121 1415 130.0 1407.5Q139 1400 144 1388L626 214Q634 192 642.0 167.0Q650 142 657 116Q663 142 670.0 167.0Q677 192 686 214L1167 1388Q1171 1399 1181.0 1407.0Q1191 1415 1205 1415Z" transform="translate(558.280,190.000) scale(0.085000,-0.085000)" fill="currentColor"/>
<path d="M1059 85 1057 0H209V1415H1057V1330H312V758H932V675H312V85Z" transform="translate(682.465,190.000) scale(0.085000,-0.085000)" fill="currentColor"/><path d="M896 1243Q887 1226 870 1226Q857 1226 836.5 1244.5Q816 1263 781.0 1285.5Q746 1308 693.5 1327.0Q641 1346 564 1346Q487 1346 428.5 1324.0Q370 1302 330.5 1264.0Q291 1226 270.5 1176.0Q250 1126 250 1071Q250 999 280.5 952.0Q311 905 361.0 872.0Q411 839 474.5 816.5Q538 794 605.0 772.0Q672 750 735.5 723.5Q799 697 849.0 657.0Q899 617 929.5 558.5Q960 500 960 413Q960 324 929.5 245.5Q899 167 841.0 109.0Q783 51 699.0 17.5Q615 -16 507 -16Q367 -16 266.0 33.5Q165 83 89 169L117 213Q129 228 145 228Q154 228 168.0 216.0Q182 204 202.0 186.5Q222 169 250.0 148.5Q278 128 315.0 110.5Q352 93 400.0 81.0Q448 69 509 69Q593 69 659.0 94.5Q725 120 770.5 164.0Q816 208 840.0 268.5Q864 329 864 398Q864 473 833.5 521.5Q803 570 753.0 602.5Q703 635 639.5 657.0Q576 679 509.0 700.0Q442 721 378.5 747.0Q315 773 265.0 813.5Q215 854 184.5 914.5Q154 975 154 1066Q154 1137 181.0 1203.0Q208 1269 260.0 1319.5Q312 1370 388.5 1400.5Q465 1431 563 1431Q673 1431 760.5 1396.0Q848 1361 920 1289Z" transform="translate(0.000,426.000) scale(0.073000,-0.073000)" fill="currentColor"/>
<path d="M1129 1328H632V0H529V1328H29V1415H1129Z" transform="translate(81.322,426.000) scale(0.073000,-0.073000)" fill="currentColor"/>
<path d="M972 514 684 1229Q669 1264 655 1313Q649 1289 642.0 1267.5Q635 1246 627 1228L339 514ZM1285 0H1206Q1192 0 1183.0 7.5Q1174 15 1169 27L1003 438H308L142 27Q138 16 128.0 8.0Q118 0 104 0H26L605 1415H706Z" transform="translate(169.068,426.000) scale(0.073000,-0.073000)" fill="currentColor"/>
<path d="M1301 1415V0H1253Q1240 0 1231.5 4.5Q1223 9 1215 20L296 1248Q299 1218 299 1191V0H209V1415H260Q274 1415 281.5 1411.5Q289 1408 298 1396L1215 171Q1212 201 1212 228V1415Z" transform="translate(267.983,426.000) scale(0.073000,-0.073000)" fill="currentColor"/>
<path d="M1401 708Q1401 544 1352.0 413.0Q1303 282 1214.0 190.0Q1125 98 1000.5 49.0Q876 0 726 0H209V1415H726Q876 1415 1000.5 1366.0Q1125 1317 1214.0 1225.0Q1303 1133 1352.0 1002.0Q1401 871 1401 708ZM1295 708Q1295 856 1254.0 972.0Q1213 1088 1138.0 1168.0Q1063 1248 958.0 1290.0Q853 1332 726 1332H312V83H726Q853 83 958.0 125.0Q1063 167 1138.0 247.0Q1213 327 1254.0 443.0Q1295 559 1295 708Z" transform="translate(381.425,426.000) scale(0.073000,-0.073000)" fill="currentColor"/>
<path d="M972 514 684 1229Q669 1264 655 1313Q649 1289 642.0 1267.5Q635 1246 627 1228L339 514ZM1285 0H1206Q1192 0 1183.0 7.5Q1174 15 1169 27L1003 438H308L142 27Q138 16 128.0 8.0Q118 0 104 0H26L605 1415H706Z" transform="translate(495.597,426.000) scale(0.073000,-0.073000)" fill="currentColor"/>
<path d="M557 716Q651 716 725.5 738.5Q800 761 851.5 803.0Q903 845 930.0 904.0Q957 963 957 1037Q957 1188 858.5 1261.0Q760 1334 571 1334H312V716ZM1185 0H1097Q1080 0 1068.5 5.5Q1057 11 1047 26L593 600Q585 611 576.5 619.0Q568 627 557.5 631.5Q547 636 532.5 638.0Q518 640 497 640H312V0H209V1415H571Q815 1415 936.5 1320.5Q1058 1226 1058 1043Q1058 962 1030.0 895.0Q1002 828 949.5 777.5Q897 727 822.5 695.0Q748 663 655 652Q679 637 698 612Z" transform="translate(594.512,426.000) scale(0.073000,-0.073000)" fill="currentColor"/>
<path d="M1401 708Q1401 544 1352.0 413.0Q1303 282 1214.0 190.0Q1125 98 1000.5 49.0Q876 0 726 0H209V1415H726Q876 1415 1000.5 1366.0Q1125 1317 1214.0 1225.0Q1303 1133 1352.0 1002.0Q1401 871 1401 708ZM1295 708Q1295 856 1254.0 972.0Q1213 1088 1138.0 1168.0Q1063 1248 958.0 1290.0Q853 1332 726 1332H312V83H726Q853 83 958.0 125.0Q1063 167 1138.0 247.0Q1213 327 1254.0 443.0Q1295 559 1295 708Z" transform="translate(686.346,426.000) scale(0.073000,-0.073000)" fill="currentColor"/></svg>