<?xml version="1.0" encoding="UTF-8"?>
<svg xmlns="http://www.w3.org/2000/svg" width="1920" height="1080" viewBox="0 0 1920 1080" role="img">

    <defs>
      <linearGradient id="bgOverlay" x1="0" y1="0" x2="1" y2="1">
        <stop offset="0%" stop-color="#08112A" stop-opacity="0.55"/>
        <stop offset="52%" stop-color="#060B18" stop-opacity="0.36"/>
        <stop offset="100%" stop-color="#140B25" stop-opacity="0.48"/>
      </linearGradient>
      <radialGradient id="blueGlow" cx="0.22" cy="0.18" r="0.55">
        <stop offset="0%" stop-color="#3E7DFF" stop-opacity="0.36"/>
        <stop offset="58%" stop-color="#3E7DFF" stop-opacity="0.10"/>
        <stop offset="100%" stop-color="#3E7DFF" stop-opacity="0"/>
      </radialGradient>
      <radialGradient id="purpleGlow" cx="0.84" cy="0.12" r="0.48">
        <stop offset="0%" stop-color="#7D53FF" stop-opacity="0.30"/>
        <stop offset="58%" stop-color="#7D53FF" stop-opacity="0.08"/>
        <stop offset="100%" stop-color="#7D53FF" stop-opacity="0"/>
      </radialGradient>
      <filter id="cardShadow" x="-20%" y="-20%" width="140%" height="150%">
        <feDropShadow dx="0" dy="18" stdDeviation="18" flood-color="#000000" flood-opacity="0.28"/>
      </filter>
      <linearGradient id="cardFill" x1="0" y1="0" x2="0" y2="1">
        <stop offset="0%" stop-color="rgba(22,31,58,.58)"/>
        <stop offset="100%" stop-color="rgba(10,15,32,.74)"/>
      </linearGradient>
      <linearGradient id="cardFillLite" x1="0" y1="0" x2="1" y2="1">
        <stop offset="0%" stop-color="rgba(27,39,72,.56)"/>
        <stop offset="100%" stop-color="rgba(12,17,34,.70)"/>
      </linearGradient>
      <linearGradient id="buyChip" x1="0" y1="0" x2="0" y2="1">
        <stop offset="0%" stop-color="#5CC15C"/>
        <stop offset="100%" stop-color="#51B652"/>
      </linearGradient>
      <linearGradient id="holdChip" x1="0" y1="0" x2="0" y2="1">
        <stop offset="0%" stop-color="#2A3C6B"/>
        <stop offset="100%" stop-color="#203055"/>
      </linearGradient>
      <linearGradient id="trimChip" x1="0" y1="0" x2="0" y2="1">
        <stop offset="0%" stop-color="#C8922E"/>
        <stop offset="100%" stop-color="#B98324"/>
      </linearGradient>
    </defs>
    

    <g id="background">
      <image href="assets/coolback.jpg" x="0" y="0" width="1920" height="1080" preserveAspectRatio="xMidYMid slice"/>
      <rect x="0" y="0" width="1920" height="1080" fill="url(#bgOverlay)"/>
      <rect x="0" y="0" width="1920" height="1080" fill="url(#blueGlow)"/>
      <rect x="0" y="0" width="1920" height="1080" fill="url(#purpleGlow)"/>
      <g><line x1="180" y1="140" x2="310" y2="190" stroke="rgba(110,135,199,.08)" stroke-width="2"/><line x1="310" y1="190" x2="520" y2="150" stroke="rgba(110,135,199,.08)" stroke-width="2"/><line x1="520" y1="150" x2="760" y2="300" stroke="rgba(110,135,199,.08)" stroke-width="2"/><line x1="760" y1="300" x2="1040" y2="260" stroke="rgba(110,135,199,.08)" stroke-width="2"/><line x1="1040" y1="260" x2="1320" y2="150" stroke="rgba(110,135,199,.08)" stroke-width="2"/><line x1="1320" y1="150" x2="1660" y2="220" stroke="rgba(110,135,199,.08)" stroke-width="2"/><line x1="310" y1="190" x2="240" y2="460" stroke="rgba(110,135,199,.08)" stroke-width="2"/><line x1="240" y1="460" x2="510" y2="520" stroke="rgba(110,135,199,.08)" stroke-width="2"/><line x1="510" y1="520" x2="830" y2="480" stroke="rgba(110,135,199,.08)" stroke-width="2"/><line x1="830" y1="480" x2="1150" y2="560" stroke="rgba(110,135,199,.08)" stroke-width="2"/><line x1="1150" y1="560" x2="1480" y2="470" stroke="rgba(110,135,199,.08)" stroke-width="2"/><line x1="1480" y1="470" x2="1700" y2="620" stroke="rgba(110,135,199,.08)" stroke-width="2"/><line x1="240" y1="460" x2="130" y2="760" stroke="rgba(110,135,199,.08)" stroke-width="2"/><line x1="130" y1="760" x2="420" y2="830" stroke="rgba(110,135,199,.08)" stroke-width="2"/><line x1="420" y1="830" x2="760" y2="770" stroke="rgba(110,135,199,.08)" stroke-width="2"/><line x1="760" y1="770" x2="1100" y2="860" stroke="rgba(110,135,199,.08)" stroke-width="2"/><line x1="1100" y1="860" x2="1480" y2="790" stroke="rgba(110,135,199,.08)" stroke-width="2"/><line x1="1480" y1="790" x2="1750" y2="880" stroke="rgba(110,135,199,.08)" stroke-width="2"/><line x1="760" y1="770" x2="620" y2="980" stroke="rgba(110,135,199,.08)" stroke-width="2"/><line x1="1100" y1="860" x2="1360" y2="980" stroke="rgba(110,135,199,.08)" stroke-width="2"/><line x1="520" y1="150" x2="510" y2="520" stroke="rgba(110,135,199,.08)" stroke-width="2"/><line x1="1040" y1="260" x2="830" y2="480" stroke="rgba(110,135,199,.08)" stroke-width="2"/><line x1="1320" y1="150" x2="1150" y2="560" stroke="rgba(110,135,199,.08)" stroke-width="2"/><line x1="1660" y1="220" x2="1480" y2="470" stroke="rgba(110,135,199,.08)" stroke-width="2"/><line x1="510" y1="520" x2="420" y2="830" stroke="rgba(110,135,199,.08)" stroke-width="2"/><line x1="830" y1="480" x2="760" y2="770" stroke="rgba(110,135,199,.08)" stroke-width="2"/><line x1="1150" y1="560" x2="1100" y2="860" stroke="rgba(110,135,199,.08)" stroke-width="2"/><line x1="1480" y1="470" x2="1480" y2="790" stroke="rgba(110,135,199,.08)" stroke-width="2"/><circle cx="180" cy="140" r="4.5" fill="rgba(110,135,199,.12)"/><circle cx="180" cy="140" r="14" fill="rgba(110,135,199,.03)"/><circle cx="310" cy="190" r="4.5" fill="rgba(110,135,199,.12)"/><circle cx="310" cy="190" r="14" fill="rgba(110,135,199,.03)"/><circle cx="520" cy="150" r="4.5" fill="rgba(110,135,199,.12)"/><circle cx="520" cy="150" r="14" fill="rgba(110,135,199,.03)"/><circle cx="760" cy="300" r="4.5" fill="rgba(110,135,199,.12)"/><circle cx="760" cy="300" r="14" fill="rgba(110,135,199,.03)"/><circle cx="1040" cy="260" r="4.5" fill="rgba(110,135,199,.12)"/><circle cx="1040" cy="260" r="14" fill="rgba(110,135,199,.03)"/><circle cx="1320" cy="150" r="4.5" fill="rgba(110,135,199,.12)"/><circle cx="1320" cy="150" r="14" fill="rgba(110,135,199,.03)"/><circle cx="1660" cy="220" r="4.5" fill="rgba(110,135,199,.12)"/><circle cx="1660" cy="220" r="14" fill="rgba(110,135,199,.03)"/><circle cx="240" cy="460" r="4.5" fill="rgba(110,135,199,.12)"/><circle cx="240" cy="460" r="14" fill="rgba(110,135,199,.03)"/><circle cx="510" cy="520" r="4.5" fill="rgba(110,135,199,.12)"/><circle cx="510" cy="520" r="14" fill="rgba(110,135,199,.03)"/><circle cx="830" cy="480" r="4.5" fill="rgba(110,135,199,.12)"/><circle cx="830" cy="480" r="14" fill="rgba(110,135,199,.03)"/><circle cx="1150" cy="560" r="4.5" fill="rgba(110,135,199,.12)"/><circle cx="1150" cy="560" r="14" fill="rgba(110,135,199,.03)"/><circle cx="1480" cy="470" r="4.5" fill="rgba(110,135,199,.12)"/><circle cx="1480" cy="470" r="14" fill="rgba(110,135,199,.03)"/><circle cx="1700" cy="620" r="4.5" fill="rgba(110,135,199,.12)"/><circle cx="1700" cy="620" r="14" fill="rgba(110,135,199,.03)"/><circle cx="130" cy="760" r="4.5" fill="rgba(110,135,199,.12)"/><circle cx="130" cy="760" r="14" fill="rgba(110,135,199,.03)"/><circle cx="420" cy="830" r="4.5" fill="rgba(110,135,199,.12)"/><circle cx="420" cy="830" r="14" fill="rgba(110,135,199,.03)"/><circle cx="760" cy="770" r="4.5" fill="rgba(110,135,199,.12)"/><circle cx="760" cy="770" r="14" fill="rgba(110,135,199,.03)"/><circle cx="1100" cy="860" r="4.5" fill="rgba(110,135,199,.12)"/><circle cx="1100" cy="860" r="14" fill="rgba(110,135,199,.03)"/><circle cx="1480" cy="790" r="4.5" fill="rgba(110,135,199,.12)"/><circle cx="1480" cy="790" r="14" fill="rgba(110,135,199,.03)"/><circle cx="1750" cy="880" r="4.5" fill="rgba(110,135,199,.12)"/><circle cx="1750" cy="880" r="14" fill="rgba(110,135,199,.03)"/><circle cx="620" cy="980" r="4.5" fill="rgba(110,135,199,.12)"/><circle cx="620" cy="980" r="14" fill="rgba(110,135,199,.03)"/><circle cx="1360" cy="980" r="4.5" fill="rgba(110,135,199,.12)"/><circle cx="1360" cy="980" r="14" fill="rgba(110,135,199,.03)"/></g>
    </g>
    
<g>

    <g id="brand-bar">
      <rect x="58" y="44" width="72" height="72" rx="20" fill="rgba(255,255,255,.02)" stroke="rgba(255,255,255,.12)" />
      <image href="assets/logo-mark.png" x="76" y="62" width="36" height="36" />
      <text x="146" y="78" fill="#F4F7FF" font-family="'Exo 2','Noto Sans Display','Inter Display','Inter',sans-serif" font-size="28" font-weight="800">AZRO Systems</text>
      <text x="146" y="107" fill="rgba(244,247,255,.65)" font-family="'Inter Display','Inter','Noto Sans Display',sans-serif" font-size="15" font-weight="700" letter-spacing="6">BTC OPERATING SYSTEM</text>
      <rect x="1408" y="42" width="452" height="64" rx="32" fill="rgba(255,255,255,.05)" stroke="rgba(195,205,238,.20)" />
      <text x="1634" y="83" fill="#F1F5FF" font-family="'Inter Display','Inter','Noto Sans Display',sans-serif" font-size="16" font-weight="700" letter-spacing="3" text-anchor="middle">MAP THE CYCLE. CUT THE NOISE.</text>
    </g>
    
<text x="960" y="148.0" fill="#71DDFF" font-family="'Inter Display','Inter','Noto Sans Display',sans-serif" font-size="18" font-weight="800" text-anchor="middle" letter-spacing="3.2">WHO THIS IS FOR</text>
<text x="960" y="246.0" fill="#F5F7FF" font-family="'Exo 2','Noto Sans Display','Inter Display','Inter',sans-serif" font-size="84" font-weight="800" text-anchor="middle" letter-spacing="0">Built for disciplined</text>
<text x="960" y="321.6" fill="#F5F7FF" font-family="'Exo 2','Noto Sans Display','Inter Display','Inter',sans-serif" font-size="84" font-weight="800" text-anchor="middle" letter-spacing="0">Bitcoin allocators.</text>
<text x="960" y="394.0" fill="rgba(244,247,255,.84)" font-family="'Inter Display','Inter','Noto Sans Display',sans-serif" font-size="24" font-weight="500" text-anchor="middle" letter-spacing="0">A calm operating process for long-horizon execution — not a chart toy.</text>
<rect x="60" y="476" width="576" height="320" rx="28" fill="url(#cardFill)" stroke="rgba(184,197,237,.18)" stroke-width="2" filter="url(#cardShadow)" />
<rect x="90" y="500" width="72" height="6" rx="3" fill="#71DDFF"/>
<text x="90" y="548.0" fill="rgba(244,247,255,.68)" font-family="'Inter Display','Inter','Noto Sans Display',sans-serif" font-size="13" font-weight="800" text-anchor="start" letter-spacing="4">FOR</text>
<text x="90" y="614.0" fill="#F5F7FF" font-family="'Exo 2','Noto Sans Display','Inter Display','Inter',sans-serif" font-size="24" font-weight="800" text-anchor="start" letter-spacing="0">Long-horizon accumulators</text>
<text x="90" y="662.8" fill="rgba(244,247,255,.86)" font-family="'Inter Display','Inter','Noto Sans Display',sans-serif" font-size="17" font-weight="500" text-anchor="start" letter-spacing="0">Structured BTC sizing instead of emotional allocation. Readable,</text>
<text x="90" y="686.26" fill="rgba(244,247,255,.86)" font-family="'Inter Display','Inter','Noto Sans Display',sans-serif" font-size="17" font-weight="500" text-anchor="start" letter-spacing="0">dashboard-first decisions instead of chart clutter. Optional trims only</text>
<text x="90" y="709.7199999999999" fill="rgba(244,247,255,.86)" font-family="'Inter Display','Inter','Noto Sans Display',sans-serif" font-size="17" font-weight="500" text-anchor="start" letter-spacing="0">when the policy supports them.</text>
<rect x="672" y="476" width="576" height="320" rx="28" fill="url(#cardFill)" stroke="rgba(184,197,237,.18)" stroke-width="2" filter="url(#cardShadow)" />
<rect x="702" y="500" width="72" height="6" rx="3" fill="#5F8FFF"/>
<text x="702" y="548.0" fill="rgba(244,247,255,.68)" font-family="'Inter Display','Inter','Noto Sans Display',sans-serif" font-size="13" font-weight="800" text-anchor="start" letter-spacing="4">FOR</text>
<text x="702" y="614.0" fill="#F5F7FF" font-family="'Exo 2','Noto Sans Display','Inter Display','Inter',sans-serif" font-size="24" font-weight="800" text-anchor="start" letter-spacing="0">Hybrid operators</text>
<text x="702" y="662.8" fill="rgba(244,247,255,.86)" font-family="'Inter Display','Inter','Noto Sans Display',sans-serif" font-size="17" font-weight="500" text-anchor="start" letter-spacing="0">Disciplined accumulation plus optional profit-taking without</text>
<text x="702" y="686.26" fill="rgba(244,247,255,.86)" font-family="'Inter Display','Inter','Noto Sans Display',sans-serif" font-size="17" font-weight="500" text-anchor="start" letter-spacing="0">abandoning a plan the moment volatility spikes.</text>
<rect x="1284" y="476" width="576" height="320" rx="28" fill="url(#cardFill)" stroke="rgba(184,197,237,.18)" stroke-width="2" filter="url(#cardShadow)" />
<rect x="1314" y="500" width="72" height="6" rx="3" fill="#8E6CFF"/>
<text x="1314" y="548.0" fill="rgba(244,247,255,.68)" font-family="'Inter Display','Inter','Noto Sans Display',sans-serif" font-size="13" font-weight="800" text-anchor="start" letter-spacing="4">FOR</text>
<text x="1314" y="614.0" fill="#F5F7FF" font-family="'Exo 2','Noto Sans Display','Inter Display','Inter',sans-serif" font-size="24" font-weight="800" text-anchor="start" letter-spacing="0">Governance-minded allocators</text>
<text x="1314" y="662.8" fill="rgba(244,247,255,.86)" font-family="'Inter Display','Inter','Noto Sans Display',sans-serif" font-size="17" font-weight="500" text-anchor="start" letter-spacing="0">A repeatable, reviewable workflow with built-in benchmark</text>
<text x="1314" y="686.26" fill="rgba(244,247,255,.86)" font-family="'Inter Display','Inter','Noto Sans Display',sans-serif" font-size="17" font-weight="500" text-anchor="start" letter-spacing="0">accountability and a durable process across future cycles.</text>
<rect x="60" y="836" width="1800" height="82" rx="22" fill="rgba(255,255,255,.045)" stroke="rgba(184,197,237,.18)" stroke-width="2" />
<text x="250" y="887" fill="#F5F7FF" font-family="'Inter Display','Inter','Noto Sans Display',sans-serif" font-size="22" font-weight="700" text-anchor="middle">No keys</text>
<text x="475.0" y="887" fill="rgba(244,247,255,.48)" font-family="'Inter Display','Inter','Noto Sans Display',sans-serif" font-size="22" font-weight="700" text-anchor="middle">•</text>
<text x="700" y="887" fill="#F5F7FF" font-family="'Inter Display','Inter','Noto Sans Display',sans-serif" font-size="22" font-weight="700" text-anchor="middle">No exchange connections</text>
<text x="924.0" y="887" fill="rgba(244,247,255,.48)" font-family="'Inter Display','Inter','Noto Sans Display',sans-serif" font-size="22" font-weight="700" text-anchor="middle">•</text>
<text x="1148" y="887" fill="#F5F7FF" font-family="'Inter Display','Inter','Noto Sans Display',sans-serif" font-size="22" font-weight="700" text-anchor="middle">No auto-trading</text>
<text x="1365.0" y="887" fill="rgba(244,247,255,.48)" font-family="'Inter Display','Inter','Noto Sans Display',sans-serif" font-size="22" font-weight="700" text-anchor="middle">•</text>
<text x="1582" y="887" fill="#F5F7FF" font-family="'Inter Display','Inter','Noto Sans Display',sans-serif" font-size="22" font-weight="700" text-anchor="middle">You stay in control</text>
<text x="960" y="982" fill="rgba(244,247,255,.56)" font-family="'Inter Display','Inter','Noto Sans Display',sans-serif" font-size="18" font-weight="500" text-anchor="middle">Not built for intraday signals, scalping, altcoin rotation, or bot execution.</text>
</g>
</svg>