<svg xmlns="http://www.w3.org/2000/svg" viewBox="0 0 1200 900" role="img" aria-labelledby="title desc">
<title id="title">Vapor path proof system illustration</title><desc id="desc">Abstract technical diagram showing oil, material path, heat, aerosol, record and registry.</desc>
<defs>
  <linearGradient id="bg" x1="0" x2="1" y1="0" y2="1"><stop offset="0" stop-color="#07111F"/><stop offset=".55" stop-color="#0D1B2E"/><stop offset="1" stop-color="#101C31"/></linearGradient>
  <linearGradient id="tube" x1="0" x2="1"><stop offset="0" stop-color="#EAF3FF" stop-opacity=".95"/><stop offset=".45" stop-color="#D7F8FF" stop-opacity=".72"/><stop offset="1" stop-color="#7EE7FF" stop-opacity=".9"/></linearGradient>
  <filter id="glow" x="-50%" y="-50%" width="200%" height="200%"><feGaussianBlur stdDeviation="9" result="b"/><feMerge><feMergeNode in="b"/><feMergeNode in="SourceGraphic"/></feMerge></filter>
  <filter id="soft" x="-30%" y="-30%" width="160%" height="160%"><feDropShadow dx="0" dy="20" stdDeviation="18" flood-color="#000" flood-opacity=".28"/></filter>
</defs>
<rect width="1200" height="900" rx="56" fill="url(#bg)"/>
<circle cx="985" cy="170" r="210" fill="#2D5BFF" opacity=".12"/><circle cx="175" cy="755" r="250" fill="#19D3E6" opacity=".10"/>
<g opacity=".20" stroke="#CFE8FF" stroke-width="1">
  <path d="M70 210h1060M70 330h1060M70 450h1060M70 570h1060M70 690h1060"/>
  <path d="M210 80v740M410 80v740M610 80v740M810 80v740M1010 80v740"/>
</g>
<g filter="url(#soft)">
  <rect x="130" y="214" width="210" height="410" rx="42" fill="#F9F6EE"/>
  <rect x="165" y="260" width="140" height="270" rx="28" fill="#F0E5D2"/>
  <path d="M185 495c25-28 56-42 91-43 11 17 16 37 14 61-27 19-65 27-104 16-7-8-7-19-1-34Z" fill="#C9902F" opacity=".85"/>
  <rect x="186" y="287" width="98" height="178" rx="18" fill="#151F31"/>
  <path d="M235 310c24 34 25 74 0 120-25-46-24-86 0-120Z" fill="#F5D072" opacity=".92"/>
  <rect x="219" y="556" width="32" height="78" rx="16" fill="#111827"/>
</g>
<path d="M335 420 C470 340, 555 512, 675 418 S920 352, 1038 468" stroke="url(#tube)" stroke-width="38" stroke-linecap="round" fill="none" filter="url(#glow)"/>
<path d="M338 420 C470 340, 555 512, 675 418 S920 352, 1038 468" stroke="#07111F" stroke-width="10" stroke-linecap="round" fill="none" opacity=".55"/>
<g fill="#E5FBFF" filter="url(#glow)">
  <circle cx="438" cy="381" r="8"/><circle cx="492" cy="386" r="5"/><circle cx="560" cy="454" r="7"/><circle cx="636" cy="446" r="4"/><circle cx="750" cy="388" r="7"/><circle cx="816" cy="373" r="5"/><circle cx="926" cy="411" r="8"/><circle cx="992" cy="452" r="5"/>
</g>
<g font-family="Inter, Arial, sans-serif" font-weight="800" letter-spacing="-.02em">
  <g transform="translate(93 98)"><rect width="254" height="80" rx="24" fill="#FFFFFF" opacity=".95"/><text x="26" y="34" font-size="19" fill="#07111F">1. Material path</text><text x="26" y="58" font-size="13" fill="#475467">What did the oil touch?</text></g>
  <g transform="translate(458 98)"><rect width="254" height="80" rx="24" fill="#FFFFFF" opacity=".95"/><text x="26" y="34" font-size="19" fill="#07111F">2. Heat behavior</text><text x="26" y="58" font-size="13" fill="#475467">What changed under heat?</text></g>
  <g transform="translate(823 98)"><rect width="282" height="80" rx="24" fill="#FFFFFF" opacity=".95"/><text x="26" y="34" font-size="19" fill="#07111F">3. Aerosol output</text><text x="26" y="58" font-size="13" fill="#475467">What came out?</text></g>
</g>
<g transform="translate(740 595)" filter="url(#soft)">
  <rect width="330" height="184" rx="34" fill="#F9F6EE"/><text x="34" y="49" font-family="Inter,Arial" font-weight="900" font-size="27" fill="#07111F">CVA record</text><text x="34" y="82" font-family="Inter,Arial" font-size="15" fill="#475467">Defined system · defined limits</text>
  <rect x="34" y="108" width="260" height="10" rx="5" fill="#2D5BFF"/><rect x="34" y="132" width="190" height="10" rx="5" fill="#93A3B8"/><rect x="34" y="156" width="230" height="10" rx="5" fill="#93A3B8"/>
</g>
</svg>