<svg xmlns="http://www.w3.org/2000/svg" viewBox="0 0 1800 1040">
<defs><linearGradient id="bg" x1="0" x2="1" y1="0" y2="1"><stop offset="0" stop-color="#06101d"/><stop offset="1" stop-color="#142644"/></linearGradient><linearGradient id="panel" x1="0" x2="1"><stop offset="0" stop-color="#0b1628"/><stop offset="1" stop-color="#12284a"/></linearGradient><filter id="s"><feDropShadow dx="0" dy="20" stdDeviation="20" flood-color="#000" flood-opacity=".25"/></filter></defs>
<rect width="1800" height="1040" fill="url(#bg)"/><circle cx="1460" cy="220" r="360" fill="#2d5bff" opacity=".12"/><circle cx="310" cy="900" r="420" fill="#0e7490" opacity=".10"/>
<text x="90" y="115" font-family="Inter,Arial" font-size="66" fill="#fff" font-weight="850" letter-spacing="-2.5">Proof and testing platform</text>
<text x="90" y="168" font-family="Inter,Arial" font-size="27" fill="#d7a64a" font-weight="750" letter-spacing="2">MATERIAL PATH · HEAT BEHAVIOR · AEROSOL OUTPUT · CVA RECORD</text>
<g transform="translate(80 235)" filter="url(#s)">
  <rect width="1020" height="570" rx="34" fill="url(#panel)" stroke="#2b3e60"/>
  <text x="38" y="62" font-family="Inter,Arial" font-size="28" fill="#fff" font-weight="800">Proof Vapor Standard dashboard</text>
  <text x="840" y="62" font-family="Inter,Arial" font-size="18" fill="#7ee3c3" font-weight="800">Private record</text>
  <g transform="translate(36 105)">
    <rect width="220" height="400" rx="24" fill="#101d33" stroke="#263d61"/><text x="22" y="44" fill="#fff" font-family="Inter,Arial" font-size="18" font-weight="800">MATERIAL PATH</text>
    <circle cx="110" cy="120" r="38" fill="#d7a64a"/><rect x="90" y="170" width="40" height="120" rx="16" fill="#f8f4ea"/><circle cx="110" cy="326" r="38" fill="#4f7cff"/><path d="M110 158v35M110 290v-35" stroke="#fff" stroke-width="5"/><text x="22" y="365" fill="#9fb4d6" font-family="Inter,Arial" font-size="16">Component map</text>
    <rect x="250" width="220" height="400" rx="24" fill="#101d33" stroke="#263d61"/><text x="272" y="44" fill="#fff" font-family="Inter,Arial" font-size="18" font-weight="800">HEAT BEHAVIOR</text>
    <polyline points="280,310 320,250 360,190 400,170 440,175" fill="none" stroke="#d7a64a" stroke-width="6"/><g stroke="#344b70" stroke-width="2"><path d="M280 120v210M320 120v210M360 120v210M400 120v210M440 120v210M270 310h190M270 260h190M270 210h190M270 160h190"/></g><text x="272" y="365" fill="#9fb4d6" font-family="Inter,Arial" font-size="16">Thermal profile</text>
    <rect x="500" width="220" height="400" rx="24" fill="#101d33" stroke="#263d61"/><text x="522" y="44" fill="#fff" font-family="Inter,Arial" font-size="18" font-weight="800">AEROSOL OUTPUT</text>
    <path d="M535 285C565 190 600 170 625 245S680 315 700 160" fill="none" stroke="#20c7e8" stroke-width="6"/><path d="M535 315C580 250 630 240 690 290" fill="none" stroke="#4f7cff" stroke-width="5" opacity=".7"/><text x="522" y="365" fill="#9fb4d6" font-family="Inter,Arial" font-size="16">Defined output panel</text>
    <rect x="750" width="220" height="400" rx="24" fill="#101d33" stroke="#263d61"/><text x="772" y="44" fill="#fff" font-family="Inter,Arial" font-size="18" font-weight="800">CVA RECORD</text>
    <g fill="#7ee3c3"><circle cx="785" cy="110" r="10"/><circle cx="785" cy="165" r="10"/><circle cx="785" cy="220" r="10"/><circle cx="785" cy="275" r="10"/></g><g fill="#9fb4d6"><rect x="810" y="102" width="120" height="16" rx="6"/><rect x="810" y="157" width="98" height="16" rx="6"/><rect x="810" y="212" width="132" height="16" rx="6"/><rect x="810" y="267" width="108" height="16" rx="6"/></g><text x="772" y="365" fill="#9fb4d6" font-family="Inter,Arial" font-size="16">Conditions + limits</text>
  </g>
</g>
<g transform="translate(1160 275)" filter="url(#s)">
  <rect width="235" height="460" rx="32" fill="#0b1628" stroke="#32486c"/><rect x="64" y="60" width="108" height="260" rx="24" fill="#0f203a" stroke="#d7a64a" stroke-width="3"/><rect x="98" y="20" width="40" height="78" rx="18" fill="#f8f4ea"/><circle cx="118" cy="250" r="46" fill="#2d5bff" opacity=".7"/><text x="44" y="400" fill="#fff" font-family="Inter,Arial" font-weight="800" font-size="22">Controlled setup</text>
</g>
<g transform="translate(1430 310)" filter="url(#s)">
  <rect width="270" height="165" rx="28" fill="#0b1628" stroke="#32486c"/><text x="28" y="48" fill="#fff" font-family="Inter,Arial" font-size="20" font-weight="800">Instrument view</text><rect x="28" y="76" width="180" height="12" rx="6" fill="#4f7cff"/><rect x="28" y="105" width="140" height="12" rx="6" fill="#20c7e8"/><rect x="28" y="134" width="210" height="12" rx="6" fill="#d7a64a"/>
  <rect y="205" width="270" height="165" rx="28" fill="#0b1628" stroke="#32486c"/><text x="28" y="253" fill="#fff" font-family="Inter,Arial" font-size="20" font-weight="800">Report queue</text><rect x="28" y="281" width="210" height="12" rx="6" fill="#9fb4d6"/><rect x="28" y="310" width="165" height="12" rx="6" fill="#9fb4d6"/><rect x="28" y="339" width="190" height="12" rx="6" fill="#9fb4d6"/>
</g>
<g transform="translate(160 865)"><rect width="1480" height="88" rx="24" fill="rgba(255,255,255,.08)" stroke="rgba(255,255,255,.14)"/><text x="32" y="55" fill="#f8f4ea" font-family="Inter,Arial" font-size="22">Purpose: identify knowns, unknowns, test questions, record limits, and pilot readiness — not make public safety claims.</text></g>
</svg>