<svg xmlns="http://www.w3.org/2000/svg" viewBox="0 0 96 96" role="img" aria-label="Prohibition Careers abstract berry mark">
<path d="M39.4 20.8 C45.9 15.9 56.5 15.4 64.6 18.0 C70.1 19.8 74.2 22.8 77.2 27.9 C74.5 25.7 71.3 24.4 67.4 23.8 C62.0 23.0 56.6 24.1 51.4 25.4 C46.2 26.7 41.8 26.7 39.6 24.8 C38.5 23.8 38.4 21.7 39.4 20.8 Z" fill="#071A13"/>
<rect x="28.5" y="30.0" width="17" height="12" rx="6" fill="#071A13" transform="rotate(-2 37 36)"/>
<rect x="47.5" y="30.0" width="17" height="12" rx="6" fill="#071A13" transform="rotate(2 56 36)"/>
<rect x="20.5" y="44.0" width="17" height="13" rx="6.5" fill="#071A13" transform="rotate(-1.5 29 50.5)"/>
<rect x="39.5" y="43.5" width="17" height="13.5" rx="6.75" fill="#071A13"/>
<rect x="58.5" y="44.0" width="17" height="13" rx="6.5" fill="#071A13" transform="rotate(1.5 67 50.5)"/>
<rect x="29.5" y="59.0" width="18" height="13" rx="6.5" fill="#071A13" transform="rotate(-1 38.5 65.5)"/>
<rect x="48.5" y="59.0" width="18" height="13" rx="6.5" fill="#071A13" transform="rotate(1 57.5 65.5)"/>
<rect x="39" y="74.0" width="18" height="12" rx="6" fill="#071A13"/>
</svg>