<svg xmlns="http://www.w3.org/2000/svg" viewBox="0 0 1400 500" role="img" aria-label="Prohibition Careers logo lockup">
  <rect width="1400" height="500" fill="#071A13"/>
  <g transform="translate(92 96) scale(3.2)">
    <rect x="4" y="4" width="88" height="88" rx="21" fill="#071A13" stroke="#F5F1E8" stroke-opacity=".10" stroke-width="1"/>
    <g transform="translate(0 -7)" fill="#F5F1E8">
  <rect x="28.5" y="30" width="17" height="12" rx="6" transform="rotate(-2 37 36)"/>
  <rect x="47.5" y="30" width="17" height="12" rx="6" transform="rotate(2 56 36)"/>
  <rect x="20.5" y="44" width="17" height="13" rx="6.5" transform="rotate(-1.5 29 50.5)"/>
  <rect x="39.5" y="43.5" width="17" height="13.5" rx="6.75"/>
  <rect x="58.5" y="44" width="17" height="13" rx="6.5" transform="rotate(1.5 67 50.5)"/>
  <rect x="29.5" y="59" width="18" height="13" rx="6.5" transform="rotate(-1 38.5 65.5)"/>
  <rect x="48.5" y="59" width="18" height="13" rx="6.5" transform="rotate(1 57.5 65.5)"/>
  <rect x="39" y="74" width="18" height="12" rx="6"/>
</g>
  </g>
  <text x="465" y="232" font-family="Arial, Helvetica, sans-serif" font-size="72" font-weight="800" letter-spacing="-1.5" fill="#F5F1E8">PROHIBITION</text>
  <text x="465" y="314" font-family="Arial, Helvetica, sans-serif" font-size="72" font-weight="800" letter-spacing="-1.5" fill="#F5F1E8">CAREERS</text>
  <text x="468" y="372" font-family="Arial, Helvetica, sans-serif" font-size="24" fill="#A7AEA8">The cannabis career network</text>
</svg>