<svg xmlns="http://www.w3.org/2000/svg" viewBox="0 0 96 96" role="img" aria-label="Prohibition Careers abstract berry network mark" shape-rendering="geometricPrecision">
  <g transform="translate(0 -7)" fill="#071A13">
  <rect x="28.5" y="30" width="17" height="12" rx="6" transform="rotate(-2 37 36)"/>
  <rect x="47.5" y="30" width="17" height="12" rx="6" transform="rotate(2 56 36)"/>
  <rect x="20.5" y="44" width="17" height="13" rx="6.5" transform="rotate(-1.5 29 50.5)"/>
  <rect x="39.5" y="43.5" width="17" height="13.5" rx="6.75"/>
  <rect x="58.5" y="44" width="17" height="13" rx="6.5" transform="rotate(1.5 67 50.5)"/>
  <rect x="29.5" y="59" width="18" height="13" rx="6.5" transform="rotate(-1 38.5 65.5)"/>
  <rect x="48.5" y="59" width="18" height="13" rx="6.5" transform="rotate(1 57.5 65.5)"/>
  <rect x="39" y="74" width="18" height="12" rx="6"/>
</g>
</svg>