<svg xmlns="http://www.w3.org/2000/svg" viewBox="0 0 1600 420" preserveAspectRatio="xMidYMid slice">
  <defs>
    <linearGradient id="bg" x1="0" x2="1" y1="0" y2="1"><stop offset="0" stop-color="#160d07"/><stop offset=".48" stop-color="#2b1408"/><stop offset="1" stop-color="#090503"/></linearGradient>
    <radialGradient id="fire" cx="54%" cy="40%" r="66%"><stop offset="0" stop-color="#ffbd5a" stop-opacity=".2"/><stop offset=".45" stop-color="#db6e27" stop-opacity=".10"/><stop offset="1" stop-color="#000" stop-opacity="0"/></radialGradient>
  </defs>
  <rect width="1600" height="420" fill="url(#bg)"/>
  <rect width="1600" height="420" fill="url(#fire)"/>
  <path d="M-40 300l122-98 97 47 105-125 112 150 76-42 100 71 126-172 127 137 74-51 119 94 95-146 147 143 81-52 129 90 185-140 105 132v140H-40z" fill="#331406"/>
  <path d="M-40 300l122-98 97 47 105-125 112 150 76-42 100 71 126-172 127 137 74-51 119 94 95-146 147 143 81-52 129 90 185-140" fill="none" stroke="#e56f2e" stroke-opacity=".38" stroke-width="2"/>
  <path d="M0 340c217-41 397-41 622-4s397 30 565-2 323-16 413 8v100H0z" fill="#080504" opacity=".74"/>
</svg>
