<svg width="520" height="160" viewBox="0 0 520 160" fill="none" xmlns="http://www.w3.org/2000/svg" role="img" aria-label="CragLink Power">
  <defs>
    <linearGradient id="cyanMint" x1="12" y1="20" x2="136" y2="144" gradientUnits="userSpaceOnUse">
      <stop offset="0" stop-color="#1EEBE7"/>
      <stop offset="0.62" stop-color="#78E6C7"/>
      <stop offset="1" stop-color="#B6E45C"/>
    </linearGradient>
    <linearGradient id="mastFade" x1="44" y1="8" x2="44" y2="78" gradientUnits="userSpaceOnUse">
      <stop offset="0" stop-color="#FFFFFF"/>
      <stop offset="0.55" stop-color="#F7FFFD"/>
      <stop offset="1" stop-color="#1EEBE7"/>
    </linearGradient>
  </defs>
  <g transform="translate(8 10) scale(.62)" stroke-linecap="round" stroke-linejoin="round">
    <path d="M72 22V104" stroke="url(#mastFade)" stroke-width="7"/>
    <g stroke="#F8FBF8" stroke-width="6">
      <path d="M72 43V68"/><path d="M59.5 55.5H84.5"/><path d="M63 47L81 65"/><path d="M81 47L63 65"/>
    </g>
    <g fill="#F8FBF8">
      <circle cx="72" cy="17" r="4.2"/><circle cx="72" cy="82" r="3.8"/><circle cx="48" cy="31" r="4.4"/><circle cx="96" cy="31" r="4.4"/><circle cx="35" cy="55" r="4.6"/><circle cx="109" cy="55" r="4.6"/><circle cx="48" cy="79" r="4.4"/><circle cx="96" cy="79" r="4.4"/>
    </g>
    <path d="M43 151C31 101 48 72 87 59C123 47 155 57 177 82" stroke="url(#cyanMint)" stroke-width="9"/>
    <path d="M61 139C55 100 70 79 101 72C130 66 153 76 170 96" stroke="url(#cyanMint)" stroke-width="6" opacity=".92"/>
    <path d="M36 167L72 127L100 154L159 88L188 88V156H62" stroke="#F9FAF5" stroke-width="8"/>
    <path d="M31 171H188" stroke="#F9FAF5" stroke-width="7"/>
    <path d="M33 174L181 202" stroke="url(#cyanMint)" stroke-width="8"/>
    <path d="M54 186H164" stroke="url(#cyanMint)" stroke-width="7"/><path d="M80 199H154" stroke="url(#cyanMint)" stroke-width="7"/><path d="M113 211H145" stroke="url(#cyanMint)" stroke-width="7"/>
  </g>
  <g transform="translate(145 45)">
    <text x="0" y="34" fill="#F7FAF8" font-family="Inter, ui-sans-serif, system-ui, -apple-system, Segoe UI, Arial" font-size="34" font-weight="850" letter-spacing="4.5">CRAGLINK</text>
    <text x="2" y="78" fill="#1EEBE7" font-family="Inter, ui-sans-serif, system-ui, -apple-system, Segoe UI, Arial" font-size="24" font-weight="700" letter-spacing="18">POWER</text>
  </g>
</svg>
