<svg xmlns="http://www.w3.org/2000/svg" viewBox="0 0 690 190" role="img" aria-labelledby="title desc">
  <title id="title">CragLink Power logo</title>
  <desc id="desc">CragLink Power wordmark with mountain signal beacon.</desc>
  <defs>
    <linearGradient id="mast" x1="54" y1="12" x2="54" y2="94" gradientUnits="userSpaceOnUse"><stop offset="0" stop-color="#F7FBF7"/><stop offset=".48" stop-color="#DDF8F4"/><stop offset="1" stop-color="#19D9D0"/></linearGradient>
    <linearGradient id="aqua" x1="20" y1="50" x2="132" y2="142" gradientUnits="userSpaceOnUse"><stop offset="0" stop-color="#19D9D0"/><stop offset=".62" stop-color="#7BE5C4"/><stop offset="1" stop-color="#B7E65B"/></linearGradient>
    <linearGradient id="trail" x1="24" y1="132" x2="141" y2="166" gradientUnits="userSpaceOnUse"><stop offset="0" stop-color="#19D9D0"/><stop offset=".72" stop-color="#80E5BB"/><stop offset="1" stop-color="#B7E65B"/></linearGradient>
    <filter id="softGlow" x="-20%" y="-20%" width="140%" height="140%"><feGaussianBlur stdDeviation="1.6" result="blur"/><feMerge><feMergeNode in="blur"/><feMergeNode in="SourceGraphic"/></feMerge></filter>
  </defs>
  <g transform="translate(10 8) scale(.72)" fill="none" stroke-linecap="round" stroke-linejoin="round">
    <g filter="url(#softGlow)">
      <line x1="75" y1="20" x2="75" y2="124" stroke="url(#mast)" stroke-width="6"/>
      <g stroke="#F7FBF7" stroke-width="5"><line x1="75" y1="40" x2="75" y2="70"/><line x1="60" y1="55" x2="90" y2="55"/><line x1="64" y1="44" x2="86" y2="66"/><line x1="86" y1="44" x2="64" y2="66"/></g>
      <g fill="#F7FBF7" stroke="none"><circle cx="75" cy="17" r="4.5"/><circle cx="75" cy="92" r="4.5"/><circle cx="37" cy="55" r="4.5"/><circle cx="113" cy="55" r="4.5"/><circle cx="48" cy="28" r="4"/><circle cx="102" cy="28" r="4"/><circle cx="48" cy="82" r="4"/><circle cx="102" cy="82" r="4"/></g>
    </g>
    <path d="M75 109 C61 109 50 115 43 126 C34 140 31 159 32 181" stroke="url(#aqua)" stroke-width="7"/>
    <path d="M75 95 C54 95 39 103 28 119 C15 139 12 165 15 198" stroke="url(#aqua)" stroke-width="7"/>
    <path d="M28 200 L74 154 L98 184 L172 104 L172 190 L55 190" stroke="#F7FBF7" stroke-width="7"/>
    <path d="M55 190 H174" stroke="#F7FBF7" stroke-width="7"/>
    <path d="M28 200 L190 232" stroke="url(#trail)" stroke-width="7"/>
    <path d="M31 202 L174 116" stroke="url(#aqua)" stroke-width="7" opacity=".42"/>
    <path d="M56 211 H165" stroke="url(#trail)" stroke-width="6"/>
    <path d="M74 229 H157" stroke="url(#trail)" stroke-width="6"/>
    <path d="M99 234 H148" stroke="url(#trail)" stroke-width="6"/>
    <g fill="#F7FBF7" stroke="none"><circle cx="41" cy="218" r="4" fill="#BDEDEA"/><circle cx="55" cy="231" r="4" fill="#BDEDEA"/><circle cx="72" cy="244" r="4" fill="#BDEDEA"/><circle cx="103" cy="246" r="4"/><circle cx="132" cy="246" r="4"/><circle cx="160" cy="245" r="4"/></g>
  </g>
  <g fill="#F7FBF7" font-family="Inter, ui-sans-serif, system-ui, -apple-system, BlinkMacSystemFont, Segoe UI, sans-serif" font-weight="800">
    <text x="165" y="85" font-size="52" letter-spacing="8">CRAGLINK</text>
    <text x="174" y="136" font-size="30" letter-spacing="23" fill="#19D9D0">POWER</text>
  </g>
</svg>
