<svg xmlns="http://www.w3.org/2000/svg" viewBox="0 0 260 260" role="img" aria-label="CragLink Power mark">
<defs>
  <linearGradient id="mast" x1="0" y1="0" x2="0" y2="1"><stop offset="0" stop-color="#ffffff"/><stop offset="0.55" stop-color="#7ff6ef"/><stop offset="1" stop-color="#12d6cb"/></linearGradient>
  <linearGradient id="ground" x1="0" y1="0" x2="1" y2="1"><stop offset="0" stop-color="#39eee5"/><stop offset="0.6" stop-color="#8de5c7"/><stop offset="1" stop-color="#d1b350"/></linearGradient>
  <filter id="glow" x="-40%" y="-40%" width="180%" height="180%"><feGaussianBlur stdDeviation="2" result="b"/><feColorMatrix in="b" type="matrix" values="0 0 0 0 0.1 0 0 0 0 .95 0 0 0 0 .9 0 0 0 .45 0"/><feMerge><feMergeNode/><feMergeNode in="SourceGraphic"/></feMerge></filter>
</defs>
<g transform="translate(20 16)" filter="url(#glow)" fill="none" stroke-linecap="round" stroke-linejoin="round">
  <path d="M84 3 L84 126" stroke="url(#mast)" stroke-width="7"/>
  <g stroke="#f7fbff" stroke-width="6">
    <path d="M84 36 L84 68"/><path d="M68 52 L100 52"/><path d="M72.5 40.5 L95.5 63.5"/><path d="M95.5 40.5 L72.5 63.5"/>
  </g>
  <g fill="#f7fbff" stroke="none">
    <circle cx="84" cy="17" r="4"/><circle cx="84" cy="87" r="4"/><circle cx="49" cy="52" r="4"/><circle cx="119" cy="52" r="4"/><circle cx="59" cy="27" r="3.5"/><circle cx="109" cy="27" r="3.5"/><circle cx="59" cy="77" r="3.5"/><circle cx="109" cy="77" r="3.5"/>
  </g>
  <path d="M21 136 C27 82 52 51 104 46 C143 43 178 55 204 81" stroke="#24ddd3" stroke-width="8"/>
  <path d="M42 133 C49 92 73 71 111 68 C142 66 168 77 188 97" stroke="#8de5c7" stroke-width="6" opacity=".95"/>
  <path d="M27 146 L93 77 L118 113 L205 22 L205 135 L30 135" stroke="#f6fbff" stroke-width="8"/>
  <path d="M31 158 H205" stroke="url(#ground)" stroke-width="8"/>
  <path d="M66 174 H197" stroke="url(#ground)" stroke-width="6"/>
  <path d="M101 190 H185" stroke="url(#ground)" stroke-width="6"/>
  <path d="M139 205 H171" stroke="url(#ground)" stroke-width="6"/>
  <path d="M31 158 L207 207" stroke="url(#ground)" stroke-width="8"/>
  <g fill="#f6fbff" stroke="none">
    <circle cx="31" cy="178" r="4.4" fill="#5ee8de"/><circle cx="55" cy="184" r="4.2" fill="#8de5c7"/><circle cx="80" cy="191" r="4" fill="#b7df9a"/><circle cx="105" cy="198" r="3.9"/><circle cx="130" cy="205" r="3.7"/><circle cx="155" cy="212" r="3.5"/><circle cx="180" cy="219" r="3.3"/>
  </g>
</g>
</svg>