<svg xmlns="http://www.w3.org/2000/svg" viewBox="0 0 1600 900" preserveAspectRatio="xMidYMid slice">
  <defs>
    <linearGradient id="sky" x1="0" x2="0" y1="0" y2="1">
      <stop offset="0" stop-color="#071824"/>
      <stop offset="0.45" stop-color="#092331"/>
      <stop offset="0.75" stop-color="#07181f"/>
      <stop offset="1" stop-color="#04100e"/>
    </linearGradient>
    <radialGradient id="aurora" cx="56%" cy="8%" r="70%">
      <stop offset="0" stop-color="#18e4dc" stop-opacity=".48"/>
      <stop offset=".28" stop-color="#0aaac1" stop-opacity=".18"/>
      <stop offset=".63" stop-color="#163f42" stop-opacity=".05"/>
      <stop offset="1" stop-color="#000" stop-opacity="0"/>
    </radialGradient>
    <linearGradient id="ridge" x1="0" x2="1" y1="0" y2="1">
      <stop offset="0" stop-color="#183447"/>
      <stop offset=".52" stop-color="#0d202b"/>
      <stop offset="1" stop-color="#061010"/>
    </linearGradient>
    <linearGradient id="rocklight" x1="0" x2="1" y1="0" y2="0">
      <stop offset="0" stop-color="#26485a" stop-opacity="0"/>
      <stop offset=".55" stop-color="#a0d9e6" stop-opacity=".16"/>
      <stop offset="1" stop-color="#0be7dc" stop-opacity="0"/>
    </linearGradient>
    <filter id="blur"><feGaussianBlur stdDeviation="14"/></filter>
  </defs>
  <rect width="1600" height="900" fill="url(#sky)"/>
  <rect width="1600" height="900" fill="url(#aurora)"/>
  <path d="M-40 240C180 122 335 210 512 92c154-102 290 62 408 7 141-66 234-49 342 18 103 64 189 66 390 8v234H-40z" fill="#082332" opacity=".42" filter="url(#blur)"/>
  <g opacity=".55" stroke="#2df1e4" stroke-width="2" fill="none" stroke-linecap="round">
    <path d="M175 138C348 84 466 109 624 68 820 17 969 87 1210 52" opacity=".18"/>
    <path d="M315 192C494 117 673 128 827 95 1020 53 1127 75 1328 105" opacity=".12"/>
    <path d="M510 128C675 80 762 95 932 45" opacity=".16"/>
  </g>
  <g opacity=".9">
    <path d="M-80 655L80 570l83 36 135-202 148 147 115-265 176 330 92-88 99 112 122-272 198 303 88-115 103 96 254-160 105 263v155H-80z" fill="url(#ridge)"/>
    <path d="M299 405l147 146 115-265 42 78-107 78 63-14-125 95 49 36-185-154z" fill="#8fd0d8" opacity=".17"/>
    <path d="M1050 369l198 303 88-115 34 32-116 35 80 18-155 11 82 58-211-342z" fill="#b9e9ef" opacity=".14"/>
    <path d="M660 616l77-88 99 112 122-272 52 80-138 58 70 15-135 55 103 68-250-28z" fill="#9ddbe0" opacity=".11"/>
    <path d="M-80 655L80 570l83 36 135-202 148 147 115-265 176 330 92-88 99 112 122-272 198 303 88-115 103 96 254-160" fill="none" stroke="#9eeef0" stroke-opacity=".17" stroke-width="2"/>
    <path d="M-90 700c221-73 433-84 646-42 142 28 291 12 443-15 216-39 425-6 670 31v230H-90z" fill="#06110e" opacity=".78"/>
  </g>
  <rect width="1600" height="900" fill="url(#rocklight)" opacity=".7"/>
  <g fill="#d8ffff" opacity=".5">
    <circle cx="128" cy="78" r="1.4"/><circle cx="214" cy="112" r="1.1"/><circle cx="405" cy="71" r="1.2"/><circle cx="635" cy="100" r="1.3"/><circle cx="715" cy="76" r="1.1"/><circle cx="893" cy="114" r="1.4"/><circle cx="1092" cy="74" r="1.1"/><circle cx="1335" cy="124" r="1.2"/><circle cx="1455" cy="67" r="1.1"/><circle cx="1538" cy="155" r="1.3"/>
  </g>
</svg>
