<svg xmlns="http://www.w3.org/2000/svg" viewBox="0 0 820 210" role="img" aria-labelledby="title desc">
<title id="title">CragLink Power</title>
<desc id="desc">CragLink Power logo combining basecamp, satellite signal, terrain and power lines.</desc>
<defs>
  <linearGradient id="crag-cyan" x1="0" y1="0" x2="0" y2="1">
    <stop offset="0" stop-color="#f6fbff"/>
    <stop offset="0.52" stop-color="#27e6db"/>
    <stop offset="1" stop-color="#12cfc4"/>
  </linearGradient>
  <linearGradient id="crag-ground" x1="0" y1="0" x2="1" y2="1">
    <stop offset="0" stop-color="#4df5ec"/>
    <stop offset="0.55" stop-color="#8fe5bd"/>
    <stop offset="1" stop-color="#d1b350"/>
  </linearGradient>
  <linearGradient id="crag-white" x1="0" y1="0" x2="0" y2="1">
    <stop offset="0" stop-color="#ffffff"/>
    <stop offset="1" stop-color="#dfe7ec"/>
  </linearGradient>
  <filter id="soft-glow" x="-40%" y="-40%" width="180%" height="180%">
    <feGaussianBlur stdDeviation="2.2" result="blur"/>
    <feColorMatrix in="blur" type="matrix" values="0 0 0 0 0.1 0 0 0 0 0.95 0 0 0 0 0.9 0 0 0 .55 0" result="glow"/>
    <feMerge><feMergeNode in="glow"/><feMergeNode in="SourceGraphic"/></feMerge>
  </filter>
  <style>
    .stroke{fill:none;stroke-linecap:round;stroke-linejoin:round;stroke-width:8.5}
    .stroke-thin{fill:none;stroke-linecap:round;stroke-linejoin:round;stroke-width:6.3}
    .word{font-family:Inter, ui-sans-serif, system-ui, -apple-system, BlinkMacSystemFont, Segoe UI, sans-serif;font-weight:760;letter-spacing:14px;fill:url(#crag-white)}
    .subword{font-family:Inter, ui-sans-serif, system-ui, -apple-system, BlinkMacSystemFont, Segoe UI, sans-serif;font-weight:560;letter-spacing:25px;fill:#22dcd2}
  </style>
</defs>
<g transform="translate(22 22)" filter="url(#soft-glow)">
  <!-- top beacon: white sparkle/dots, single clean mast fade into cyan -->
  <path class="stroke-thin" d="M84 3 L84 126" stroke="url(#crag-cyan)"/>
  <g stroke="#f6fbff" stroke-linecap="round" stroke-width="6.6">
    <path d="M84 36 L84 68"/><path d="M68 52 L100 52"/><path d="M72.5 40.5 L95.5 63.5"/><path d="M95.5 40.5 L72.5 63.5"/>
  </g>
  <g fill="#f6fbff">
    <circle cx="84" cy="17" r="4.3"/><circle cx="84" cy="87" r="4.3"/>
    <circle cx="49" cy="52" r="4.3"/><circle cx="119" cy="52" r="4.3"/>
    <circle cx="59" cy="27" r="3.7"/><circle cx="109" cy="27" r="3.7"/>
    <circle cx="59" cy="77" r="3.7"/><circle cx="109" cy="77" r="3.7"/>
  </g>
  <!-- signal arcs / sky -->
  <path class="stroke" d="M21 136 C27 82 52 51 104 46 C143 43 178 55 204 81" stroke="#24ddd3"/>
  <path class="stroke-thin" d="M42 133 C49 92 73 71 111 68 C142 66 168 77 188 97" stroke="#8de5c7" opacity=".95"/>
  <!-- basecamp / mountain outline -->
  <path class="stroke" d="M27 146 L93 77 L118 113 L205 22 L205 135 L30 135" stroke="#f6fbff"/>
  <!-- horizon and power lines -->
  <path class="stroke" d="M31 158 H205" stroke="url(#crag-ground)"/>
  <path class="stroke-thin" d="M66 174 H197" stroke="url(#crag-ground)"/>
  <path class="stroke-thin" d="M101 190 H185" stroke="url(#crag-ground)"/>
  <path class="stroke-thin" d="M139 205 H171" stroke="url(#crag-ground)"/>
  <!-- downward terrain/signal vector and dots -->
  <path class="stroke" d="M31 158 L207 207" stroke="url(#crag-ground)"/>
  <g fill="#f6fbff">
    <circle cx="31" cy="178" r="4.5" fill="#5ee8de"/><circle cx="55" cy="184" r="4.3" fill="#8de5c7"/><circle cx="80" cy="191" r="4.1" fill="#b7df9a"/><circle cx="105" cy="198" r="4.0"/><circle cx="130" cy="205" r="3.8"/><circle cx="155" cy="212" r="3.6"/><circle cx="180" cy="219" r="3.4"/>
  </g>
</g>
<g transform="translate(288 74)">
  <text class="word" x="0" y="54" font-size="54">CRAGLINK</text>
  <text class="subword" x="6" y="116" font-size="31">POWER</text>
</g>
</svg>