<svg xmlns="http://www.w3.org/2000/svg" viewBox="0 0 1600 520" preserveAspectRatio="none">
  <defs>
    <linearGradient id="r1" x1="0" y1="0" x2="0" y2="1"><stop stop-color="#335862" stop-opacity=".88"/><stop offset=".48" stop-color="#122A31"/><stop offset="1" stop-color="#02080D"/></linearGradient>
    <linearGradient id="r2" x1="0" y1="0" x2="0" y2="1"><stop stop-color="#203C43" stop-opacity=".95"/><stop offset="1" stop-color="#010506"/></linearGradient>
    <linearGradient id="snow" x1="0" y1="0" x2="1" y2="1"><stop stop-color="#F6F8F7" stop-opacity=".7"/><stop offset="1" stop-color="#9CB9BD" stop-opacity=".05"/></linearGradient>
    <filter id="grain"><feTurbulence type="fractalNoise" baseFrequency=".9" numOctaves="3" stitchTiles="stitch"/><feColorMatrix type="saturate" values="0"/><feComponentTransfer><feFuncA type="table" tableValues="0 .12"/></feComponentTransfer></filter>
  </defs>
  <rect width="1600" height="520" fill="transparent"/>
  <path d="M0 505 L95 390 L162 432 L260 312 L348 422 L482 172 L598 420 L735 232 L845 420 L966 286 L1088 432 L1210 188 L1356 430 L1465 300 L1600 468 L1600 520 L0 520Z" fill="url(#r1)"/>
  <path d="M0 520 L130 448 L230 482 L365 368 L500 490 L642 315 L792 492 L910 392 L1040 500 L1175 340 L1330 500 L1468 398 L1600 482 L1600 520Z" fill="url(#r2)"/>
  <g fill="url(#snow)" opacity=".7">
    <path d="M482 172 L438 342 L482 286 L514 426 L598 420Z"/>
    <path d="M735 232 L704 350 L736 306 L768 418 L845 420Z"/>
    <path d="M1210 188 L1168 360 L1210 292 L1256 430 L1356 430Z"/>
    <path d="M1465 300 L1435 384 L1464 352 L1518 450 L1600 468Z"/>
  </g>
  <rect width="1600" height="520" filter="url(#grain)" opacity=".5"/>
</svg>
