<svg xmlns="http://www.w3.org/2000/svg" width="1200" height="630" viewBox="0 0 1200 630">
<rect width="1200" height="630" fill="#071A13"/>
<defs><linearGradient id="a"><stop stop-color="#A6533D"/><stop offset=".55" stop-color="#EFB33C"/><stop offset="1" stop-color="#9EAF8E"/></linearGradient></defs>
<path d="M0 0h1200v4H0z" fill="url(#a)"/>
<g transform="translate(72 58) scale(.76)"><rect x="4" y="4" width="88" height="88" rx="20" fill="#0D281E"/><g fill="#F5F0E7"><rect x="30" y="20" width="17" height="12" rx="6"/><rect x="49" y="20" width="17" height="12" rx="6"/><rect x="21" y="34" width="17" height="13" rx="6.5"/><rect x="39.5" y="33.5" width="17" height="13.5" rx="6.75"/><rect x="58" y="34" width="17" height="13" rx="6.5"/><rect x="30" y="49" width="18" height="13" rx="6.5"/><rect x="48" y="49" width="18" height="13" rx="6.5"/><rect x="39" y="64" width="18" height="12" rx="6"/></g></g>
<text x="162" y="102" fill="#F5F0E7" font-family="Arial,Helvetica,sans-serif" font-size="32" font-weight="700">PROHIBITION CAREERS</text>
<text x="72" y="250" fill="#F5F0E7" font-family="Arial,Helvetica,sans-serif" font-size="58" font-weight="800">Cannabis became a legal industry.</text>
<text x="72" y="360" fill="#EFB33C" font-family="Arial,Helvetica,sans-serif" font-size="68" font-weight="800">People convicted for it</text>
<text x="72" y="438" fill="#EFB33C" font-family="Arial,Helvetica,sans-serif" font-size="68" font-weight="800">were left behind.</text>
<text x="72" y="545" fill="#B8C2BC" font-family="Arial,Helvetica,sans-serif" font-size="30">The job is earned. The chance should be real.</text>
</svg>