<svg xmlns="http://www.w3.org/2000/svg" width="1200" height="630" viewBox="0 0 1200 630">
<rect width="1200" height="630" fill="#071A13"/>
<path d="M0 0H1200V630H0Z" fill="url(#g)" opacity=".85"/>
<defs><pattern id="p" width="96" height="96" patternUnits="userSpaceOnUse"><path d="M96 0H0V96" fill="none" stroke="#A6B897" stroke-opacity=".08"/></pattern><linearGradient id="g" x1="120" y1="70" x2="1060" y2="580" gradientUnits="userSpaceOnUse"><stop stop-color="#0D281E"/><stop offset="1" stop-color="#071A13"/></linearGradient></defs>
<rect width="1200" height="630" fill="url(#p)"/>
<g transform="translate(82 72) scale(.82)">
  <rect x="4" y="4" width="88" height="88" rx="20" fill="#071A13"/>
  <g fill="#F6F1E7">
    <rect x="29" y="24" width="17" height="12" rx="6"/>
    <rect x="50" y="24" width="17" height="12" rx="6"/>
    <rect x="20" y="39" width="17" height="13" rx="6.5"/>
    <rect x="39.5" y="38.5" width="17" height="13.5" rx="6.75"/>
    <rect x="59" y="39" width="17" height="13" rx="6.5"/>
    <rect x="29" y="55" width="18" height="13" rx="6.5"/>
    <rect x="49" y="55" width="18" height="13" rx="6.5"/>
    <rect x="39" y="71" width="18" height="12" rx="6"/>
  </g>
</g>
<text x="190" y="116" fill="#FFFDF8" font-family="Arial,Helvetica,sans-serif" font-size="34" font-weight="700">Prohibition Careers</text>
<text x="82" y="268" fill="#FFFDF8" font-family="Georgia,serif" font-size="75" font-weight="700">Prohibition built records.</text>
<text x="82" y="362" fill="#EFB43C" font-family="Georgia,serif" font-size="75" font-weight="700">Let’s build careers.</text>
<text x="82" y="470" fill="#B8C3BD" font-family="Arial,Helvetica,sans-serif" font-size="29">The role is earned. The chance should be real.</text>
<rect x="82" y="534" width="1036" height="2" fill="#A6B897" opacity=".35"/>
</svg>