<svg xmlns="http://www.w3.org/2000/svg" style="display:none">
  <symbol id="i-clock" viewBox="0 0 24 24"><circle cx="12" cy="12" r="8" fill="none" stroke="currentColor" stroke-width="1.8"/><path d="M12 7v5l3 2" fill="none" stroke="currentColor" stroke-width="1.8" stroke-linecap="round"/></symbol>
  <symbol id="i-bolt" viewBox="0 0 24 24"><path d="M13 2L4 14h7l-1 8 10-13h-7V2z" fill="none" stroke="currentColor" stroke-width="1.8" stroke-linejoin="round"/></symbol>
  <symbol id="i-sun" viewBox="0 0 24 24"><circle cx="12" cy="12" r="3.4" fill="none" stroke="currentColor" stroke-width="1.7"/><path d="M12 2.8v3M12 18.2v3M2.8 12h3M18.2 12h3M5.5 5.5l2.1 2.1M16.4 16.4l2.1 2.1M18.5 5.5l-2.1 2.1M7.6 16.4l-2.1 2.1" stroke="currentColor" stroke-width="1.7" stroke-linecap="round"/></symbol>
  <symbol id="i-car" viewBox="0 0 24 24"><path d="M5 16h14M6 16l1.1-5.1A3 3 0 0 1 10 8.5h4a3 3 0 0 1 2.9 2.4L18 16M7.5 16v2.5M16.5 16v2.5" fill="none" stroke="currentColor" stroke-width="1.8" stroke-linecap="round" stroke-linejoin="round"/><circle cx="8.5" cy="13.6" r=".6" fill="currentColor"/><circle cx="15.5" cy="13.6" r=".6" fill="currentColor"/></symbol>
  <symbol id="i-shield" viewBox="0 0 24 24"><path d="M12 3l7 3.3v5.4c0 4.7-2.9 7.8-7 9.3-4.1-1.5-7-4.6-7-9.3V6.3L12 3z" fill="none" stroke="currentColor" stroke-width="1.7"/><path d="M8.5 12.2l2.2 2.2 4.9-5" fill="none" stroke="currentColor" stroke-width="1.7" stroke-linecap="round" stroke-linejoin="round"/></symbol>
</svg>
